<?xml version="1.0" standalone="no"?><!DOCTYPE svg PUBLIC "-//W3C//DTD SVG 1.1//EN" "http://www.w3.org/Graphics/SVG/1.1/DTD/svg11.dtd"><svg t="1540348383746" class="icon" style="" viewBox="0 0 1024 1024" version="1.1" xmlns="http://www.w3.org/2000/svg" p-id="5203" xmlns:xlink="http://www.w3.org/1999/xlink" width="200" height="200"><defs><style type="text/css"></style></defs><path d="M502.697478 7.767155C302.377139 7.767155 140.170048 170.154877 140.170048 370.294585c0 41.545246 7.044629 81.464809 19.869465 118.674898V489.511378l0.541895 1.083789c6.141471 17.340624 13.547363 34.139354 22.037043 50.215558l0.180632 0.361263 0.180631 0.361263c3.431999 6.322103 7.044629 12.644205 10.837891 18.785677l0.361263 0.541894 0.180631 0.361263 240.05927 415.813724c30.346093 52.383136 106.030693 52.383136 136.196154 0L811.757982 559.957664l1.083789-1.625683 7.767155-13.547363c0.361263-0.541895 0.722526-1.083789 0.903157-1.625683l0.180632-0.541895 0.180631-0.361263c8.850944-16.618098 16.618098-33.958723 22.940201-51.841242l0.541895-1.083789v-0.361263c12.824837-37.21009 19.869466-77.129652 19.869465-118.674898C865.224907 170.154877 702.837185 7.767155 502.697478 7.767155z m0 523.650732c-95.192803 0-172.141824-77.129652-172.141824-172.141824s77.129652-172.141824 172.141824-172.141824 172.141824 77.129652 172.141823 172.141824-77.129652 172.141824-172.141823 172.141824z" p-id="5204"></path></svg>